<svg width="300" height="450" viewBox="0 0 300 450" fill="none" xmlns="http://www.w3.org/2000/svg">
  <rect width="300" height="450" fill="#e0e0e0"/>
  <path d="M150 225C183.137 225 210 198.137 210 165C210 131.863 183.137 105 150 105C116.863 105 90 131.863 90 165C90 198.137 116.863 225 150 225Z" fill="#9e9e9e"/>
  <path d="M231 345C231 302.906 195.094 270 150 270C104.906 270 69 302.906 69 345" stroke="#9e9e9e" stroke-width="30"/>
  <path d="M150 195C166.569 195 180 181.569 180 165C180 148.431 166.569 135 150 135C133.431 135 120 148.431 120 165C120 181.569 133.431 195 150 195Z" fill="#e0e0e0"/>
</svg> 